<?xml version="1.0" encoding="UTF-8"?>
<svg id="Layer_2" data-name="Layer 2" xmlns="http://www.w3.org/2000/svg" viewBox="0 0 171 153">
  <g id="Layer_3" data-name="Layer 3">
    <path d="M165.5,18h-75.5V4.5c0-2.49-2.01-4.5-4.5-4.5s-4.5,2.01-4.5,4.5v13.5H5.5c-2.49,0-4.5,2.01-4.5,4.5s2.01,4.5,4.5,4.5h160c2.49,0,4.5-2.01,4.5-4.5s-2.01-4.5-4.5-4.5Z"/>
    <path d="M148.5,40.5c-12.41,0-22.5,10.09-22.5,22.5,0,10.87,7.74,19.96,18,22.05v13.95H27v-13.95c10.26-2.09,18-11.18,18-22.05,0-12.41-10.09-22.5-22.5-22.5S0,50.59,0,63c0,10.87,7.74,19.96,18,22.05v63.45c0,2.49,2.01,4.5,4.5,4.5s4.5-2.01,4.5-4.5v-18h117v18c0,2.49,2.01,4.5,4.5,4.5s4.5-2.01,4.5-4.5v-63.45c10.26-2.09,18-11.18,18-22.05,0-12.41-10.09-22.5-22.5-22.5ZM9,63c0-7.44,6.06-13.5,13.5-13.5s13.5,6.06,13.5,13.5-6.06,13.5-13.5,13.5-13.5-6.06-13.5-13.5ZM144,121.5H27v-13.5h117v13.5ZM148.5,76.5c-7.44,0-13.5-6.06-13.5-13.5s6.06-13.5,13.5-13.5,13.5,6.06,13.5,13.5-6.06,13.5-13.5,13.5Z"/>
    <path d="M111,40.5c0-2.49-2.01-4.5-4.5-4.5s-4.5,2.01-4.5,4.5c0,9.1-7.4,16.5-16.5,16.5s-16.5-7.4-16.5-16.5c0-2.49-2.01-4.5-4.5-4.5s-4.5,2.01-4.5,4.5c0,12.52,9.08,22.96,21,25.09v19.91c0,2.49,2.01,4.5,4.5,4.5s4.5-2.01,4.5-4.5v-19.91c11.92-2.13,21-12.57,21-25.09Z"/>
  </g>
</svg>