<?xml version="1.0" encoding="UTF-8"?>
<svg id="Layer_2" data-name="Layer 2" xmlns="http://www.w3.org/2000/svg" viewBox="0 0 308.02 345.08">
  <g id="Layer_1-2" data-name="Layer 1">
    <path d="M269.25,76.59h38.77v38.77h-38.77v-38.77Z"/>
    <path d="M305.87,173.21v36.16c0,39.67-7.13,69.72-20.14,91.33-18.49,30.72-48.87,44.38-87.56,44.38s-69.07-13.66-87.56-44.38c-13.01-21.61-20.14-51.66-20.14-91.33v-36.16h37.05v36.16c0,73.67,24.98,102.1,70.65,102.1s70.65-28.43,70.65-102.1v-36.16h37.05Z"/>
    <path d="M107.7,304.15C41.79,304.15,0,264.51,0,168.44v-32.74C0,39.63,41.79,0,107.7,0s107.7,39.63,107.7,135.7v32.74c0,96.07-41.79,135.7-107.7,135.7ZM37.05,168.44c0,73.67,24.99,102.1,70.65,102.1s70.65-28.43,70.65-102.1v-32.74c0-73.67-24.99-102.1-70.65-102.1s-70.65,28.43-70.65,102.1v32.74Z"/>
  </g>
</svg>